<svg width="164" height="85" viewBox="0 0 164 85" fill="none" xmlns="http://www.w3.org/2000/svg">
<path fill-rule="evenodd" clip-rule="evenodd" d="M26.9058 5.4852C14.0807 12.8673 4.95829 22.7899 1.51484 34H35V51H0.736603C3.58236 64.412 14.4909 76.2032 30.2674 84.3477C52.408 63.2484 88.2188 57.0085 120.776 71.2358C127.275 74.076 133.264 77.5655 138.684 81.5752C151.778 73.6296 160.726 62.9592 163.263 51H127V34H162.485C158.232 20.1532 145.314 8.27066 127.456 0.714111C105.195 20.2542 70.5982 25.6821 39.0551 11.8979C34.7788 10.0291 30.7234 7.87932 26.9058 5.4852ZM76.94 22.08C77.5 22.08 78.18 22.46 78.98 23.22C79.82 23.94 80.24 24.56 80.24 25.08C80.24 27.52 80.16 30.86 80 35.1C79.96 36.14 79.92 37.4 79.88 38.88C79.84 40.32 79.82 42 79.82 43.92C79.82 50 80.18 54.48 80.9 57.36C80.86 58.32 80.48 59.02 79.76 59.46C79.04 59.86 78.32 60.06 77.6 60.06C76 60.06 74.94 59.5 74.42 58.38C73.94 57.26 73.7 55.66 73.7 53.58C73.7 45.86 73.78 38.76 73.94 32.28C69.34 37.4 65.76 41.7 63.2 45.18L62.12 45.9C61.44 46.5 60.88 46.8 60.44 46.8C59.4 46.8 58.54 46.54 57.86 46.02C57.18 45.5 56.52 44.74 55.88 43.74L53 39.66C51 36.86 49.54 34.74 48.62 33.3C48.62 36.98 48.8 41.98 49.16 48.3C49.44 51.94 49.58 54.68 49.58 56.52C49.58 57.48 49.34 58.3 48.86 58.98C48.38 59.62 47.62 59.94 46.58 59.94C45.54 59.94 44.68 59.74 44 59.34C43.36 58.94 43.02 58.34 42.98 57.54C43.02 56.86 43.04 55.74 43.04 54.18C43.04 51.06 42.94 47.26 42.74 42.78L42.62 39.54L42.5 35.34C42.46 34.1 42.42 32.66 42.38 31.02C42.34 29.34 42.32 27.52 42.32 25.56C42.32 23.16 43.62 21.96 46.22 21.96C47.02 21.96 47.82 22.16 48.62 22.56C49.46 22.96 50.08 23.54 50.48 24.3C50.8 25.7 51.98 28.02 54.02 31.26C56.06 34.5 58.06 37.54 60.02 40.38C61.78 38.14 63.22 36.46 64.34 35.34C66.26 33.38 67.84 31.56 69.08 29.88C70.36 28.2 71.74 26.18 73.22 23.82C73.58 23.34 74.1 22.94 74.78 22.62C75.46 22.26 76.18 22.08 76.94 22.08ZM120.688 47.88C120.688 50.12 119.828 52.26 118.108 54.3C116.428 56.3 114.288 57.88 111.688 59.04C110.568 59.4 109.148 59.7 107.428 59.94C105.708 60.14 103.968 60.26 102.208 60.3C98.768 60.3 95.568 59.82 92.608 58.86C92.088 58.74 91.488 58.4 90.808 57.84C90.128 57.28 89.808 56.54 89.848 55.62V53.58C89.848 51.34 89.788 49.18 89.668 47.1C89.588 44.38 89.548 42.3 89.548 40.86L89.488 34.08C89.488 31.68 89.568 29.26 89.728 26.82C89.768 25.58 90.228 24.54 91.108 23.7C92.028 22.82 93.168 22.28 94.528 22.08C95.048 22.04 95.988 22.02 97.348 22.02L103.108 22.08C105.868 22.08 108.328 22.44 110.488 23.16C112.648 23.88 114.508 25.04 116.068 26.64C116.588 27.24 117.008 28.04 117.328 29.04C117.648 30 117.808 30.94 117.808 31.86C117.688 35.1 115.828 37.74 112.228 39.78C115.108 40.14 117.228 41.04 118.588 42.48C119.988 43.92 120.688 45.72 120.688 47.88ZM98.008 38.34C98.408 38.3 99.048 38.28 99.928 38.28H102.628C103.828 38.28 104.668 38.24 105.148 38.16C109.228 37.24 111.268 35.62 111.268 33.3C111.268 32.7 111.168 32.06 110.968 31.38C110.808 30.7 110.588 30.22 110.308 29.94C109.268 28.94 108.288 28.3 107.368 28.02C106.448 27.7 105.088 27.54 103.288 27.54C99.808 27.54 97.308 27.72 95.788 28.08L95.848 38.4L98.008 38.34ZM100.768 55.26C104.928 55.26 108.188 54.74 110.548 53.7C112.948 52.66 114.148 50.62 114.148 47.58C114.148 46.38 113.268 45.4 111.508 44.64C109.748 43.84 107.828 43.44 105.748 43.44C103.188 43.44 101.388 43.5 100.348 43.62C99.468 43.7 98.868 43.74 98.548 43.74C97.948 43.74 97.528 43.72 97.288 43.68H96.568C96.328 43.64 96.068 43.64 95.788 43.68L95.848 45.66C95.888 46.14 95.948 47.46 96.028 49.62C96.148 51.74 96.168 53.24 96.088 54.12C97.008 54.52 97.808 54.82 98.488 55.02C99.168 55.18 99.928 55.26 100.768 55.26Z" fill="url(#paint0_linear_79_27)"/>
<defs>
<linearGradient id="paint0_linear_79_27" x1="82" y1="0.714111" x2="82" y2="84.3477" gradientUnits="userSpaceOnUse">
<stop offset="0.32" stop-color="#FF0F00"/>
<stop offset="0.605" stop-color="#7F3131"/>
<stop offset="1" stop-color="#2113C8" stop-opacity="0.71"/>
</linearGradient>
</defs>
</svg>
